<svg width="32" height="32" viewBox="0 0 32 32" fill="none" xmlns="http://www.w3.org/2000/svg">
<path d="M3.47873 2.45291L3.47875 2.45292L3.4807 2.44816C3.53229 2.32257 3.78049 2.03834 4.75767 1.91962C5.67091 1.80868 6.94055 1.8843 8.47439 2.14071C11.5272 2.65105 15.4089 3.83925 19.1057 5.36648C22.8101 6.89679 26.2526 8.73623 28.4605 10.5164C29.5738 11.4141 30.2952 12.2354 30.6203 12.9283C30.7778 13.264 30.8271 13.5372 30.8116 13.7588C30.7968 13.9711 30.7195 14.1904 30.5299 14.4263L30.5273 14.4295C30.2642 14.76 29.9835 15.1162 29.6863 15.4935C27.3018 18.5199 23.8507 22.9002 19.8642 26.18C15.3508 29.8933 10.4862 31.931 5.8437 29.5018L5.84371 29.5018L5.83817 29.4989C4.53873 28.8306 3.52027 27.2497 2.81801 24.9039C2.12589 22.592 1.79643 19.7191 1.73021 16.7528C1.66416 13.7938 1.86079 10.7835 2.19909 8.21606C2.54027 5.6268 3.01628 3.56038 3.47873 2.45291Z" fill="white" stroke="black" stroke-width="1.76704"/>
</svg>
