<svg width="33" height="32" viewBox="0 0 33 32" fill="none" xmlns="http://www.w3.org/2000/svg">
<path d="M4.91606 27.8711L4.9157 27.8708C1.50849 24.5835 1.34819 19.3952 2.52758 14.1833C3.69542 9.0224 6.11022 4.1615 7.38931 1.90362C7.43774 1.81814 7.63777 1.58977 8.52851 1.69232C9.3702 1.78923 10.5213 2.16235 11.9037 2.79352C14.6502 4.04752 18.0716 6.20845 21.301 8.68125C24.5324 11.1555 27.5145 13.8984 29.4087 16.2928C30.361 17.4965 30.994 18.5574 31.2726 19.4123C31.5506 20.2653 31.4269 20.7267 31.1806 21.0026L31.1805 21.0025L31.1734 21.0107C29.1332 23.352 24.3132 26.8746 19.05 28.8784C13.7434 30.8986 8.39702 31.2333 4.91606 27.8711Z" fill="white" stroke="black" stroke-width="1.76704"/>
</svg>
