<svg width="45" height="33" viewBox="0 0 45 33" fill="none" xmlns="http://www.w3.org/2000/svg">
<path d="M19.3019 31.5324L19.298 31.5319C13.3793 30.6843 9.00247 26.0419 6.01546 20.3944C3.03763 14.7642 1.55799 8.34196 1.33861 4.35583C1.31007 3.83722 1.6114 3.26626 2.69941 2.69446C3.78 2.12657 5.41989 1.69105 7.49977 1.41412C11.639 0.862996 17.2316 0.975367 22.8133 1.64669C28.3967 2.31821 33.8906 3.53962 37.8427 5.16564C39.8255 5.98146 41.3543 6.87276 42.3173 7.79691C43.27 8.71122 43.5722 9.55133 43.4121 10.3534L43.411 10.3593C42.5164 15.0066 39.4072 20.7758 35.0042 25.1551C30.5989 29.5367 25.0527 32.3826 19.3019 31.5324Z" fill="white" stroke="black" stroke-width="1.76704"/>
</svg>
