<svg width="55" height="55" viewBox="0 0 55 55" fill="none" xmlns="http://www.w3.org/2000/svg">
<path d="M14.5088 2.8357L14.5095 2.83533C17.1066 1.46783 20.6079 1.00581 24.5253 1.24028C28.4275 1.47385 32.6559 2.39336 36.6381 3.70074C40.6202 5.00807 44.3236 6.69251 47.1773 8.43527C48.6045 9.30686 49.8029 10.1832 50.7134 11.022C51.634 11.8701 52.2077 12.632 52.463 13.265C54.0353 17.2197 53.6685 20.4835 52.644 23.5241C52.1253 25.0637 51.4397 26.5403 50.7344 28.0414C50.7061 28.1016 50.6778 28.1618 50.6495 28.2221C49.9783 29.65 49.2929 31.108 48.7736 32.5994L48.7736 32.5994L48.7712 32.6064C48.2308 34.2015 47.9539 36.0426 47.7148 37.8924C47.6719 38.2248 47.6301 38.5577 47.5884 38.8905C47.3941 40.4396 47.1997 41.9892 46.8844 43.4927C46.1222 47.1271 44.7053 50.2303 41.1518 51.8705L41.1491 51.8717C38.3573 53.1717 34.7147 53.5676 30.7029 53.2524C26.7033 52.9382 22.4093 51.9228 18.3684 50.4736C14.327 49.0242 10.5698 47.152 7.63858 45.1443C4.67401 43.1138 2.67963 41.0297 1.97314 39.2032L1.97282 39.2024C0.688969 35.8929 1.08992 32.6607 2.07596 29.558C2.56997 28.0035 3.20409 26.5021 3.83606 25.0475C3.91012 24.877 3.98431 24.7068 4.0583 24.5371C4.60853 23.2751 5.1481 22.0375 5.54703 20.8764L5.5471 20.8765L5.55076 20.8654C5.9993 19.5014 6.22054 17.9418 6.44141 16.3847L6.44852 16.3346C6.67585 14.7323 6.90909 13.0978 7.37057 11.4786C8.27782 8.29534 10.0661 5.16986 14.5088 2.8357Z" fill="white" stroke="black" stroke-width="1.76704"/>
</svg>
