<svg width="57" height="56" viewBox="0 0 57 56" fill="none" xmlns="http://www.w3.org/2000/svg">
<path d="M37.614 7.28593L37.6162 7.28664C37.8036 7.34762 37.9942 7.40948 38.1878 7.4723C41.3465 8.4973 45.2847 9.77529 48.6639 11.5702C52.2848 13.4936 55.0043 15.8768 55.6271 18.924L55.6282 18.9292C56.523 23.1768 55.1739 26.5495 53.2623 29.5129C52.4608 30.7555 51.5758 31.9033 50.7149 33.0198C50.5397 33.2471 50.3655 33.4731 50.1931 33.6983C49.1945 35.0034 48.2427 36.3041 47.6581 37.5996C47.0762 38.8891 46.7099 40.475 46.3669 42.0802C46.3193 42.3029 46.2721 42.5265 46.2247 42.7507C45.9235 44.1759 45.617 45.6268 45.181 47.0331C44.1786 50.2665 42.5573 53.0508 39.0102 54.3049C35.4044 55.5713 31.7994 55.0225 28.3435 53.7759C25.93 52.9053 23.686 51.7373 21.5841 50.6432C20.6349 50.1492 19.7148 49.6702 18.821 49.2405L18.821 49.2405L18.8143 49.2374C17.8606 48.7886 16.8085 48.3413 15.7041 47.8718C13.4629 46.919 11.0063 45.8747 8.71947 44.5405C5.3308 42.5635 2.65426 40.1238 1.94292 36.8146C1.21467 33.3981 2.23938 30.2509 3.82495 27.2516C4.57164 25.8392 5.42686 24.488 6.26445 23.1646C6.31693 23.0817 6.36934 22.9989 6.42164 22.9162C7.29814 21.5304 8.15506 20.1602 8.77595 18.8416C9.40297 17.5241 9.94387 15.7974 10.4892 13.9973C10.5502 13.7962 10.6112 13.5938 10.6726 13.3904C11.1689 11.7462 11.6845 10.0378 12.2957 8.41615C12.9834 6.59173 13.7711 4.93674 14.74 3.6614C15.7033 2.3935 16.8073 1.54949 18.1295 1.2418C21.002 0.573325 24.1656 1.45912 27.5439 2.8884C28.8033 3.42122 30.0586 4.01373 31.3223 4.61024C31.7444 4.80953 32.1676 5.00927 32.5921 5.20737C34.2718 5.99112 35.9629 6.74395 37.614 7.28593Z" fill="white" stroke="black" stroke-width="1.76704"/>
</svg>
