<svg width="40" height="39" viewBox="0 0 40 39" fill="none" xmlns="http://www.w3.org/2000/svg">
<path d="M14.0138 6.75407L14.0155 6.7535C15.1162 6.39119 15.9631 5.79017 16.7048 5.1549C17.0283 4.87783 17.3417 4.58521 17.6429 4.30405C17.6831 4.26652 17.7231 4.22919 17.7628 4.19214C18.1064 3.87194 18.4402 3.56506 18.7947 3.27443C19.496 2.69955 20.2655 2.19946 21.2574 1.86516C22.2506 1.5304 23.5121 1.34674 25.2096 1.46711C27.3066 1.62675 29.3523 2.96402 31.2363 5.1463C33.11 7.31653 34.7322 10.2203 35.9851 13.2717C37.2366 16.3194 38.1007 19.4679 38.4823 22.0996C38.6732 23.4163 38.7402 24.5816 38.6827 25.5279C38.624 26.4965 38.4402 27.1357 38.216 27.4852C36.4468 30.2214 33.7855 31.0652 31.1265 31.3223C30.002 31.431 28.9148 31.4316 27.9033 31.4322C27.7089 31.4323 27.5174 31.4324 27.3288 31.4333C26.7553 31.436 26.2004 31.4461 25.7062 31.4912C25.2208 31.5356 24.7276 31.6187 24.3036 31.8009L24.3036 31.8008L24.2945 31.8048C23.5458 32.1365 22.8529 32.7204 22.1975 33.2923C22.1014 33.3762 22.005 33.4609 21.908 33.5461C21.3125 34.069 20.6936 34.6126 19.964 35.1301C18.308 36.3046 16.0903 37.3345 12.6356 37.2279L12.6314 37.2278C10.8415 37.1812 8.99184 35.9622 7.24885 33.798C5.52593 31.6587 4.02897 28.7404 2.93087 25.6428C1.83363 22.5477 1.15423 19.3289 1.03082 16.6123C0.969111 15.254 1.04769 14.0475 1.26789 13.0569C1.48974 12.0589 1.84117 11.3426 2.27518 10.8918L2.27558 10.8913C4.37994 8.70268 6.57111 7.89165 8.5714 7.51981C9.48809 7.34941 10.3582 7.27202 11.193 7.19777C11.2847 7.18961 11.3759 7.1815 11.4668 7.1733C12.3524 7.09338 13.2523 7.00299 14.0138 6.75407Z" fill="white" stroke="black" stroke-width="1.76704"/>
</svg>
